<svg width="21" height="20" viewBox="0 0 21 20" fill="none" xmlns="http://www.w3.org/2000/svg">
<g filter="url(#filter0_i_172_1857)">
<path d="M13.0795 19.0644C13.2085 19.1306 13.3586 19.1428 13.4966 19.0984C13.565 19.0764 13.6284 19.0412 13.6831 18.9947C13.7379 18.9482 13.7829 18.8914 13.8157 18.8275C13.8485 18.7636 13.8684 18.6939 13.8742 18.6223C13.8801 18.5507 13.8718 18.4787 13.8498 18.4103C13.8278 18.3419 13.7925 18.2786 13.746 18.2238C13.6995 18.1691 13.6427 18.124 13.5788 18.0912L13.0795 19.0644ZM13.5788 18.0912C11.8857 17.2225 11.1963 16.0706 10.9057 14.7981C10.5995 13.4587 10.7307 12.0231 10.7307 10.4919H9.63696C9.63696 11.8831 9.49634 13.5425 9.83946 15.0419C10.1976 16.6081 11.0807 18.0387 13.0795 19.0644L13.5788 18.0912Z" fill="url(#paint0_linear_172_1857)"/>
<path d="M13.0795 19.0644C13.2085 19.1306 13.3586 19.1428 13.4966 19.0984C13.565 19.0764 13.6284 19.0412 13.6831 18.9947C13.7379 18.9482 13.7829 18.8914 13.8157 18.8275C13.8485 18.7636 13.8684 18.6939 13.8742 18.6223C13.8801 18.5507 13.8718 18.4787 13.8498 18.4103C13.8278 18.3419 13.7925 18.2786 13.746 18.2238C13.6995 18.1691 13.6427 18.124 13.5788 18.0912L13.0795 19.0644ZM13.5788 18.0912C11.8857 17.2225 11.1963 16.0706 10.9057 14.7981C10.5995 13.4587 10.7307 12.0231 10.7307 10.4919H9.63696C9.63696 11.8831 9.49634 13.5425 9.83946 15.0419C10.1976 16.6081 11.0807 18.0387 13.0795 19.0644L13.5788 18.0912Z" fill="url(#paint1_radial_172_1857)"/>
<path d="M13.0795 19.0644C13.2085 19.1306 13.3586 19.1428 13.4966 19.0984C13.565 19.0764 13.6284 19.0412 13.6831 18.9947C13.7379 18.9482 13.7829 18.8914 13.8157 18.8275C13.8485 18.7636 13.8684 18.6939 13.8742 18.6223C13.8801 18.5507 13.8718 18.4787 13.8498 18.4103C13.8278 18.3419 13.7925 18.2786 13.746 18.2238C13.6995 18.1691 13.6427 18.124 13.5788 18.0912L13.0795 19.0644ZM13.5788 18.0912C11.8857 17.2225 11.1963 16.0706 10.9057 14.7981C10.5995 13.4587 10.7307 12.0231 10.7307 10.4919H9.63696C9.63696 11.8831 9.49634 13.5425 9.83946 15.0419C10.1976 16.6081 11.0807 18.0387 13.0795 19.0644L13.5788 18.0912Z" fill="url(#paint2_radial_172_1857)"/>
</g>
<path d="M11.5138 14.9C9.76446 13.5781 10.1501 10.4044 10.1501 8.5C12.6895 8.5 14.4238 8.3475 16.0645 9.3825C18.042 10.63 16.7188 13.2787 14.7563 13.0737C15.0588 14.8119 12.9788 16.0069 11.5138 14.9Z" fill="url(#paint3_linear_172_1857)"/>
<path d="M11.5138 14.9C9.76446 13.5781 10.1501 10.4044 10.1501 8.5C12.6895 8.5 14.4238 8.3475 16.0645 9.3825C18.042 10.63 16.7188 13.2787 14.7563 13.0737C15.0588 14.8119 12.9788 16.0069 11.5138 14.9Z" fill="url(#paint4_radial_172_1857)"/>
<path d="M11.5138 14.9C9.76446 13.5781 10.1501 10.4044 10.1501 8.5C12.6895 8.5 14.4238 8.3475 16.0645 9.3825C18.042 10.63 16.7188 13.2787 14.7563 13.0737C15.0588 14.8119 12.9788 16.0069 11.5138 14.9Z" fill="url(#paint5_radial_172_1857)"/>
<path d="M11.5138 14.9C9.76446 13.5781 10.1501 10.4044 10.1501 8.5C12.6895 8.5 14.4238 8.3475 16.0645 9.3825C18.042 10.63 16.7188 13.2787 14.7563 13.0737C15.0588 14.8119 12.9788 16.0069 11.5138 14.9Z" fill="url(#paint6_radial_172_1857)"/>
<path d="M11.5138 14.9C9.76446 13.5781 10.1501 10.4044 10.1501 8.5C12.6895 8.5 14.4238 8.3475 16.0645 9.3825C18.042 10.63 16.7188 13.2787 14.7563 13.0737C15.0588 14.8119 12.9788 16.0069 11.5138 14.9Z" fill="url(#paint7_radial_172_1857)"/>
<path d="M11.5138 14.9C9.76446 13.5781 10.1501 10.4044 10.1501 8.5C12.6895 8.5 14.4238 8.3475 16.0645 9.3825C18.042 10.63 16.7188 13.2787 14.7563 13.0737C15.0588 14.8119 12.9788 16.0069 11.5138 14.9Z" fill="url(#paint8_radial_172_1857)"/>
<path d="M11.5138 14.9C9.76446 13.5781 10.1501 10.4044 10.1501 8.5C12.6895 8.5 14.4238 8.3475 16.0645 9.3825C18.042 10.63 16.7188 13.2787 14.7563 13.0737C15.0588 14.8119 12.9788 16.0069 11.5138 14.9Z" fill="url(#paint9_radial_172_1857)"/>
<path d="M11.5138 14.9C9.76446 13.5781 10.1501 10.4044 10.1501 8.5C12.6895 8.5 14.4238 8.3475 16.0645 9.3825C18.042 10.63 16.7188 13.2787 14.7563 13.0737C15.0588 14.8119 12.9788 16.0069 11.5138 14.9Z" fill="url(#paint10_radial_172_1857)"/>
<path d="M11.5138 14.9C9.76446 13.5781 10.1501 10.4044 10.1501 8.5C12.6895 8.5 14.4238 8.3475 16.0645 9.3825C18.042 10.63 16.7188 13.2787 14.7563 13.0737C15.0588 14.8119 12.9788 16.0069 11.5138 14.9Z" fill="url(#paint11_radial_172_1857)"/>
<g filter="url(#filter1_f_172_1857)">
<path d="M10.292 13.3625C10.2201 14.4894 10.7526 17.0813 13.4557 18.4413" stroke="url(#paint12_linear_172_1857)" stroke-width="0.3" stroke-linecap="round"/>
</g>
<path d="M10.1501 8.53V8.5C10.4493 8.49958 10.7376 8.49813 11.0151 8.49563C13.0963 8.48063 14.6176 8.46938 16.0651 9.3825C18.0201 10.6163 16.7663 13.2413 14.7595 13.075L10.1501 8.53Z" fill="url(#paint13_linear_172_1857)"/>
<path d="M10.1501 8.53V8.5C10.4493 8.49958 10.7376 8.49813 11.0151 8.49563C13.0963 8.48063 14.6176 8.46938 16.0651 9.3825C18.0201 10.6163 16.7663 13.2413 14.7595 13.075L10.1501 8.53Z" fill="url(#paint14_radial_172_1857)"/>
<g filter="url(#filter2_i_172_1857)">
<path d="M8.81571 14.9C10.5651 13.5775 10.1532 10.4044 10.1532 8.5C7.61446 8.5 5.90509 8.34687 4.26446 9.3825C2.28759 10.63 3.61071 13.2787 5.57321 13.0737C5.27071 14.8119 7.35071 16.0069 8.81571 14.9Z" fill="url(#paint15_radial_172_1857)"/>
<path d="M8.81571 14.9C10.5651 13.5775 10.1532 10.4044 10.1532 8.5C7.61446 8.5 5.90509 8.34687 4.26446 9.3825C2.28759 10.63 3.61071 13.2787 5.57321 13.0737C5.27071 14.8119 7.35071 16.0069 8.81571 14.9Z" fill="url(#paint16_radial_172_1857)"/>
<path d="M8.81571 14.9C10.5651 13.5775 10.1532 10.4044 10.1532 8.5C7.61446 8.5 5.90509 8.34687 4.26446 9.3825C2.28759 10.63 3.61071 13.2787 5.57321 13.0737C5.27071 14.8119 7.35071 16.0069 8.81571 14.9Z" fill="url(#paint17_radial_172_1857)"/>
</g>
<path d="M8.81571 14.9C10.5651 13.5775 10.1532 10.4044 10.1532 8.5C7.61446 8.5 5.90509 8.34687 4.26446 9.3825C2.28759 10.63 3.61071 13.2787 5.57321 13.0737C5.27071 14.8119 7.35071 16.0069 8.81571 14.9Z" fill="url(#paint18_radial_172_1857)"/>
<path d="M8.81571 14.9C10.5651 13.5775 10.1532 10.4044 10.1532 8.5C7.61446 8.5 5.90509 8.34687 4.26446 9.3825C2.28759 10.63 3.61071 13.2787 5.57321 13.0737C5.27071 14.8119 7.35071 16.0069 8.81571 14.9Z" fill="url(#paint19_radial_172_1857)"/>
<g filter="url(#filter3_f_172_1857)">
<path d="M6.78572 11.3706L10.0201 8.62938C9.67572 8.695 8.76947 9.06188 8.07509 9.65188C7.29384 10.3163 6.80384 11.1069 6.78572 11.3706Z" fill="url(#paint20_linear_172_1857)"/>
</g>
<g filter="url(#filter4_f_172_1857)">
<path d="M9.91071 9.14375L7.74322 11.2538L9.63697 12.5625C10.012 11.1875 9.97634 9.71063 9.91071 9.14375Z" fill="url(#paint21_radial_172_1857)"/>
</g>
<g filter="url(#filter5_f_172_1857)">
<path d="M14.5422 12.5093C15.5594 12.7557 16.5531 12.257 16.7618 11.3955C16.9705 10.534 16.3151 9.63588 15.298 9.38949C14.2808 9.14309 13.287 9.64173 13.0784 10.5032C12.8697 11.3647 13.5251 12.2629 14.5422 12.5093Z" fill="url(#paint22_radial_172_1857)"/>
</g>
<g filter="url(#filter6_f_172_1857)">
<path d="M14.1138 12.5325L10.5163 9.00749C10.8851 9.50749 11.3138 10.0594 12.2063 11.1562C13.0207 12.1569 13.467 12.4575 14.1138 12.5325Z" fill="url(#paint23_radial_172_1857)"/>
</g>
<g filter="url(#filter7_i_172_1857)">
<path d="M11.5445 2.17187C9.98196 3.48 10.207 6.615 10.207 8.51937C12.7457 8.51937 14.4551 8.72437 16.0957 7.68937C18.0726 6.44187 16.7495 3.7925 14.787 3.9975C15.0895 2.26 12.9526 0.992499 11.5445 2.17187Z" fill="#48D386"/>
<path d="M11.5445 2.17187C9.98196 3.48 10.207 6.615 10.207 8.51937C12.7457 8.51937 14.4551 8.72437 16.0957 7.68937C18.0726 6.44187 16.7495 3.7925 14.787 3.9975C15.0895 2.26 12.9526 0.992499 11.5445 2.17187Z" fill="url(#paint24_radial_172_1857)"/>
<path d="M11.5445 2.17187C9.98196 3.48 10.207 6.615 10.207 8.51937C12.7457 8.51937 14.4551 8.72437 16.0957 7.68937C18.0726 6.44187 16.7495 3.7925 14.787 3.9975C15.0895 2.26 12.9526 0.992499 11.5445 2.17187Z" fill="url(#paint25_radial_172_1857)"/>
<path d="M11.5445 2.17187C9.98196 3.48 10.207 6.615 10.207 8.51937C12.7457 8.51937 14.4551 8.72437 16.0957 7.68937C18.0726 6.44187 16.7495 3.7925 14.787 3.9975C15.0895 2.26 12.9526 0.992499 11.5445 2.17187Z" fill="url(#paint26_radial_172_1857)"/>
<path d="M11.5445 2.17187C9.98196 3.48 10.207 6.615 10.207 8.51937C12.7457 8.51937 14.4551 8.72437 16.0957 7.68937C18.0726 6.44187 16.7495 3.7925 14.787 3.9975C15.0895 2.26 12.9526 0.992499 11.5445 2.17187Z" fill="url(#paint27_radial_172_1857)" fill-opacity="0.25"/>
<path d="M11.5445 2.17187C9.98196 3.48 10.207 6.615 10.207 8.51937C12.7457 8.51937 14.4551 8.72437 16.0957 7.68937C18.0726 6.44187 16.7495 3.7925 14.787 3.9975C15.0895 2.26 12.9526 0.992499 11.5445 2.17187Z" fill="url(#paint28_radial_172_1857)"/>
</g>
<g filter="url(#filter8_f_172_1857)">
<path d="M15.3399 6.1731C16.0654 6.25491 16.6885 6.01036 16.7318 5.62688C16.775 5.2434 16.222 4.86621 15.4965 4.7844C14.7711 4.7026 14.1479 4.94715 14.1047 5.33063C14.0614 5.7141 14.6145 6.09129 15.3399 6.1731Z" fill="url(#paint29_radial_172_1857)"/>
</g>
<g filter="url(#filter9_i_172_1857)">
<path d="M8.84634 2.17187C10.4088 3.48 10.1838 6.615 10.1838 8.51937C7.64509 8.51937 5.93634 8.72437 4.29571 7.68937C2.31884 6.44187 3.64134 3.7925 5.60446 3.9975C5.30134 2.26 7.43884 0.992499 8.84634 2.17187Z" fill="url(#paint30_linear_172_1857)"/>
<path d="M8.84634 2.17187C10.4088 3.48 10.1838 6.615 10.1838 8.51937C7.64509 8.51937 5.93634 8.72437 4.29571 7.68937C2.31884 6.44187 3.64134 3.7925 5.60446 3.9975C5.30134 2.26 7.43884 0.992499 8.84634 2.17187Z" fill="url(#paint31_radial_172_1857)"/>
<path d="M8.84634 2.17187C10.4088 3.48 10.1838 6.615 10.1838 8.51937C7.64509 8.51937 5.93634 8.72437 4.29571 7.68937C2.31884 6.44187 3.64134 3.7925 5.60446 3.9975C5.30134 2.26 7.43884 0.992499 8.84634 2.17187Z" fill="url(#paint32_radial_172_1857)"/>
<path d="M8.84634 2.17187C10.4088 3.48 10.1838 6.615 10.1838 8.51937C7.64509 8.51937 5.93634 8.72437 4.29571 7.68937C2.31884 6.44187 3.64134 3.7925 5.60446 3.9975C5.30134 2.26 7.43884 0.992499 8.84634 2.17187Z" fill="url(#paint33_radial_172_1857)"/>
<path d="M8.84634 2.17187C10.4088 3.48 10.1838 6.615 10.1838 8.51937C7.64509 8.51937 5.93634 8.72437 4.29571 7.68937C2.31884 6.44187 3.64134 3.7925 5.60446 3.9975C5.30134 2.26 7.43884 0.992499 8.84634 2.17187Z" fill="url(#paint34_radial_172_1857)"/>
<path d="M8.84634 2.17187C10.4088 3.48 10.1838 6.615 10.1838 8.51937C7.64509 8.51937 5.93634 8.72437 4.29571 7.68937C2.31884 6.44187 3.64134 3.7925 5.60446 3.9975C5.30134 2.26 7.43884 0.992499 8.84634 2.17187Z" fill="url(#paint35_radial_172_1857)"/>
</g>
<g filter="url(#filter10_f_172_1857)">
<path d="M6.80571 3.96875L9.96946 8.30438C9.96946 7.35688 9.96946 5.6875 9.57884 4.14438C9.33321 3.175 8.65134 1.78125 7.16634 2.15188C5.97884 2.44875 6.57134 3.7925 6.80509 3.96875" fill="url(#paint36_radial_172_1857)"/>
<path d="M6.80571 3.96875L9.96946 8.30438C9.96946 7.35688 9.96946 5.6875 9.57884 4.14438C9.33321 3.175 8.65134 1.78125 7.16634 2.15188C5.97884 2.44875 6.57134 3.7925 6.80509 3.96875" fill="url(#paint37_radial_172_1857)"/>
</g>
<g filter="url(#filter11_f_172_1857)">
<path d="M6.31259 4.58376L9.61259 8.03126C9.04696 7.74813 8.50946 7.55251 7.63071 6.62501C6.72384 5.66751 6.31259 4.89001 6.31259 4.58376Z" fill="url(#paint38_linear_172_1857)"/>
</g>
<g filter="url(#filter12_f_172_1857)">
<path d="M14.2761 3.477C14.1868 2.75243 13.804 2.20329 13.421 2.25047C13.038 2.29764 12.7998 2.92327 12.8891 3.64785C12.9783 4.37242 13.3612 4.92156 13.7442 4.87439C14.1272 4.82721 14.3653 4.20158 14.2761 3.477Z" fill="url(#paint39_radial_172_1857)"/>
</g>
<defs>
<filter id="filter0_i_172_1857" x="9.60843" y="10.3419" width="4.41761" height="8.78283" filterUnits="userSpaceOnUse" color-interpolation-filters="sRGB">
<feFlood flood-opacity="0" result="BackgroundImageFix"/>
<feBlend mode="normal" in="SourceGraphic" in2="BackgroundImageFix" result="shape"/>
<feColorMatrix in="SourceAlpha" type="matrix" values="0 0 0 0 0 0 0 0 0 0 0 0 0 0 0 0 0 0 127 0" result="hardAlpha"/>
<feOffset dx="0.15" dy="-0.15"/>
<feGaussianBlur stdDeviation="0.5"/>
<feComposite in2="hardAlpha" operator="arithmetic" k2="-1" k3="1"/>
<feColorMatrix type="matrix" values="0 0 0 0 0.243137 0 0 0 0 0.380392 0 0 0 0 0.478431 0 0 0 1 0"/>
<feBlend mode="normal" in2="shape" result="effect1_innerShadow_172_1857"/>
</filter>
<filter id="filter1_f_172_1857" x="9.73589" y="12.8125" width="4.26985" height="6.1788" filterUnits="userSpaceOnUse" color-interpolation-filters="sRGB">
<feFlood flood-opacity="0" result="BackgroundImageFix"/>
<feBlend mode="normal" in="SourceGraphic" in2="BackgroundImageFix" result="shape"/>
<feGaussianBlur stdDeviation="0.2" result="effect1_foregroundBlur_172_1857"/>
</filter>
<filter id="filter2_i_172_1857" x="3.28741" y="8.49202" width="6.90802" height="6.83577" filterUnits="userSpaceOnUse" color-interpolation-filters="sRGB">
<feFlood flood-opacity="0" result="BackgroundImageFix"/>
<feBlend mode="normal" in="SourceGraphic" in2="BackgroundImageFix" result="shape"/>
<feColorMatrix in="SourceAlpha" type="matrix" values="0 0 0 0 0 0 0 0 0 0 0 0 0 0 0 0 0 0 127 0" result="hardAlpha"/>
<feOffset/>
<feGaussianBlur stdDeviation="1"/>
<feComposite in2="hardAlpha" operator="arithmetic" k2="-1" k3="1"/>
<feColorMatrix type="matrix" values="0 0 0 0 0.0901961 0 0 0 0 0.576471 0 0 0 0 0.313726 0 0 0 1 0"/>
<feBlend mode="normal" in2="shape" result="effect1_innerShadow_172_1857"/>
</filter>
<filter id="filter3_f_172_1857" x="6.28572" y="8.12938" width="4.23438" height="3.74126" filterUnits="userSpaceOnUse" color-interpolation-filters="sRGB">
<feFlood flood-opacity="0" result="BackgroundImageFix"/>
<feBlend mode="normal" in="SourceGraphic" in2="BackgroundImageFix" result="shape"/>
<feGaussianBlur stdDeviation="0.25" result="effect1_foregroundBlur_172_1857"/>
</filter>
<filter id="filter4_f_172_1857" x="7.24322" y="8.64375" width="3.20908" height="4.41875" filterUnits="userSpaceOnUse" color-interpolation-filters="sRGB">
<feFlood flood-opacity="0" result="BackgroundImageFix"/>
<feBlend mode="normal" in="SourceGraphic" in2="BackgroundImageFix" result="shape"/>
<feGaussianBlur stdDeviation="0.25" result="effect1_foregroundBlur_172_1857"/>
</filter>
<filter id="filter5_f_172_1857" x="11.7896" y="8.07652" width="6.26094" height="5.7457" filterUnits="userSpaceOnUse" color-interpolation-filters="sRGB">
<feFlood flood-opacity="0" result="BackgroundImageFix"/>
<feBlend mode="normal" in="SourceGraphic" in2="BackgroundImageFix" result="shape"/>
<feGaussianBlur stdDeviation="0.625" result="effect1_foregroundBlur_172_1857"/>
</filter>
<filter id="filter6_f_172_1857" x="10.1163" y="8.60749" width="4.3975" height="4.32499" filterUnits="userSpaceOnUse" color-interpolation-filters="sRGB">
<feFlood flood-opacity="0" result="BackgroundImageFix"/>
<feBlend mode="normal" in="SourceGraphic" in2="BackgroundImageFix" result="shape"/>
<feGaussianBlur stdDeviation="0.2" result="effect1_foregroundBlur_172_1857"/>
</filter>
<filter id="filter7_i_172_1857" x="10.1957" y="1.4628" width="7.12706" height="7.07307" filterUnits="userSpaceOnUse" color-interpolation-filters="sRGB">
<feFlood flood-opacity="0" result="BackgroundImageFix"/>
<feBlend mode="normal" in="SourceGraphic" in2="BackgroundImageFix" result="shape"/>
<feColorMatrix in="SourceAlpha" type="matrix" values="0 0 0 0 0 0 0 0 0 0 0 0 0 0 0 0 0 0 127 0" result="hardAlpha"/>
<feOffset dx="0.25" dy="-0.25"/>
<feGaussianBlur stdDeviation="0.5"/>
<feComposite in2="hardAlpha" operator="arithmetic" k2="-1" k3="1"/>
<feColorMatrix type="matrix" values="0 0 0 0 0.227451 0 0 0 0 0.596078 0 0 0 0 0.352941 0 0 0 1 0"/>
<feBlend mode="normal" in2="shape" result="effect1_innerShadow_172_1857"/>
</filter>
<filter id="filter8_f_172_1857" x="13.1023" y="3.76863" width="4.63184" height="3.42024" filterUnits="userSpaceOnUse" color-interpolation-filters="sRGB">
<feFlood flood-opacity="0" result="BackgroundImageFix"/>
<feBlend mode="normal" in="SourceGraphic" in2="BackgroundImageFix" result="shape"/>
<feGaussianBlur stdDeviation="0.5" result="effect1_foregroundBlur_172_1857"/>
</filter>
<filter id="filter9_i_172_1857" x="3.31851" y="1.4628" width="7.12658" height="7.07307" filterUnits="userSpaceOnUse" color-interpolation-filters="sRGB">
<feFlood flood-opacity="0" result="BackgroundImageFix"/>
<feBlend mode="normal" in="SourceGraphic" in2="BackgroundImageFix" result="shape"/>
<feColorMatrix in="SourceAlpha" type="matrix" values="0 0 0 0 0 0 0 0 0 0 0 0 0 0 0 0 0 0 127 0" result="hardAlpha"/>
<feOffset dx="0.25" dy="-0.25"/>
<feGaussianBlur stdDeviation="0.5"/>
<feComposite in2="hardAlpha" operator="arithmetic" k2="-1" k3="1"/>
<feColorMatrix type="matrix" values="0 0 0 0 0.211765 0 0 0 0 0.505882 0 0 0 0 0.407843 0 0 0 1 0"/>
<feBlend mode="normal" in2="shape" result="effect1_innerShadow_172_1857"/>
</filter>
<filter id="filter10_f_172_1857" x="5.69935" y="1.34067" width="5.02011" height="7.71371" filterUnits="userSpaceOnUse" color-interpolation-filters="sRGB">
<feFlood flood-opacity="0" result="BackgroundImageFix"/>
<feBlend mode="normal" in="SourceGraphic" in2="BackgroundImageFix" result="shape"/>
<feGaussianBlur stdDeviation="0.375" result="effect1_foregroundBlur_172_1857"/>
</filter>
<filter id="filter11_f_172_1857" x="5.81259" y="4.08376" width="4.3" height="4.44749" filterUnits="userSpaceOnUse" color-interpolation-filters="sRGB">
<feFlood flood-opacity="0" result="BackgroundImageFix"/>
<feBlend mode="normal" in="SourceGraphic" in2="BackgroundImageFix" result="shape"/>
<feGaussianBlur stdDeviation="0.25" result="effect1_foregroundBlur_172_1857"/>
</filter>
<filter id="filter12_f_172_1857" x="11.8703" y="1.24763" width="3.42449" height="4.62958" filterUnits="userSpaceOnUse" color-interpolation-filters="sRGB">
<feFlood flood-opacity="0" result="BackgroundImageFix"/>
<feBlend mode="normal" in="SourceGraphic" in2="BackgroundImageFix" result="shape"/>
<feGaussianBlur stdDeviation="0.5" result="effect1_foregroundBlur_172_1857"/>
</filter>
<linearGradient id="paint0_linear_172_1857" x1="10.5163" y1="12.1719" x2="13.6413" y2="19.0075" gradientUnits="userSpaceOnUse">
<stop stop-color="#18554D"/>
<stop offset="1" stop-color="#509E85"/>
</linearGradient>
<radialGradient id="paint1_radial_172_1857" cx="0" cy="0" r="1" gradientUnits="userSpaceOnUse" gradientTransform="translate(13.9245 18.5781) rotate(167.692) scale(0.549748 0.587913)">
<stop stop-color="#6AAC9A"/>
<stop offset="1" stop-color="#6AAC9A" stop-opacity="0"/>
</radialGradient>
<radialGradient id="paint2_radial_172_1857" cx="0" cy="0" r="1" gradientUnits="userSpaceOnUse" gradientTransform="translate(11.0538 14.4275) rotate(169.611) scale(0.595704 3.46296)">
<stop stop-color="#557C70"/>
<stop offset="1" stop-color="#557C70" stop-opacity="0"/>
</radialGradient>
<linearGradient id="paint3_linear_172_1857" x1="9.81321" y1="8.73437" x2="14.032" y2="12.4844" gradientUnits="userSpaceOnUse">
<stop stop-color="#2C9C60"/>
<stop offset="1" stop-color="#3CCE7F"/>
</linearGradient>
<radialGradient id="paint4_radial_172_1857" cx="0" cy="0" r="1" gradientUnits="userSpaceOnUse" gradientTransform="translate(17.3529 11.7029) rotate(-161.184) scale(5.57117 2.65711)">
<stop stop-color="#46D282"/>
<stop offset="1" stop-color="#46D282" stop-opacity="0"/>
</radialGradient>
<radialGradient id="paint5_radial_172_1857" cx="0" cy="0" r="1" gradientUnits="userSpaceOnUse" gradientTransform="translate(15.7507 14.7106) rotate(-139.207) scale(2.86992 3.23896)">
<stop stop-color="#43D592"/>
<stop offset="1" stop-color="#43D592" stop-opacity="0"/>
</radialGradient>
<radialGradient id="paint6_radial_172_1857" cx="0" cy="0" r="1" gradientUnits="userSpaceOnUse" gradientTransform="translate(15.2627 13.7346) rotate(178.075) scale(2.32553 4.38106)">
<stop stop-color="#45DF94"/>
<stop offset="1" stop-color="#45DF94" stop-opacity="0"/>
</radialGradient>
<radialGradient id="paint7_radial_172_1857" cx="0" cy="0" r="1" gradientUnits="userSpaceOnUse" gradientTransform="translate(10.3213 8.695) rotate(44.627) scale(4.57631 0.506564)">
<stop stop-color="#249F5C"/>
<stop offset="1" stop-color="#249F5C" stop-opacity="0"/>
</radialGradient>
<radialGradient id="paint8_radial_172_1857" cx="0" cy="0" r="1" gradientUnits="userSpaceOnUse" gradientTransform="translate(13.7584 7.95281) rotate(99.541) scale(1.08929 5.10981)">
<stop stop-color="#439059"/>
<stop offset="1" stop-color="#439059" stop-opacity="0"/>
</radialGradient>
<radialGradient id="paint9_radial_172_1857" cx="0" cy="0" r="1" gradientUnits="userSpaceOnUse" gradientTransform="translate(15.0479 13.7546) rotate(-179.091) scale(1.23062 1.46652)">
<stop stop-color="#4DD695"/>
<stop offset="1" stop-color="#4DD695" stop-opacity="0"/>
</radialGradient>
<radialGradient id="paint10_radial_172_1857" cx="0" cy="0" r="1" gradientUnits="userSpaceOnUse" gradientTransform="translate(14.657 11.0387) rotate(-179.576) scale(5.27358 11.9521)">
<stop offset="0.624" stop-color="#1D9453" stop-opacity="0"/>
<stop offset="1" stop-color="#1D9453"/>
</radialGradient>
<radialGradient id="paint11_radial_172_1857" cx="0" cy="0" r="1" gradientUnits="userSpaceOnUse" gradientTransform="translate(13.5782 10.375) rotate(103.007) scale(5.53258 4.30383)">
<stop offset="0.841" stop-color="#438882" stop-opacity="0"/>
<stop offset="0.969" stop-color="#438882"/>
</radialGradient>
<linearGradient id="paint12_linear_172_1857" x1="13.4557" y1="18.3044" x2="10.1551" y2="13.7538" gradientUnits="userSpaceOnUse">
<stop stop-color="#69AA99"/>
<stop offset="1" stop-color="#69AA99" stop-opacity="0"/>
</linearGradient>
<linearGradient id="paint13_linear_172_1857" x1="9.77446" y1="10.7888" x2="11.9226" y2="9.105" gradientUnits="userSpaceOnUse">
<stop stop-color="#219756"/>
<stop offset="1" stop-color="#219756" stop-opacity="0"/>
</linearGradient>
<radialGradient id="paint14_radial_172_1857" cx="0" cy="0" r="1" gradientUnits="userSpaceOnUse" gradientTransform="translate(14.3838 9.65188) rotate(88.2643) scale(3.86896 9.20981)">
<stop offset="0.821" stop-color="#438882" stop-opacity="0"/>
<stop offset="1" stop-color="#438882"/>
</radialGradient>
<radialGradient id="paint15_radial_172_1857" cx="0" cy="0" r="1" gradientUnits="userSpaceOnUse" gradientTransform="translate(8.09442 10.9218) rotate(-47.586) scale(4.28567 4.19242)">
<stop stop-color="#53CE8D"/>
<stop offset="1" stop-color="#39B97C"/>
</radialGradient>
<radialGradient id="paint16_radial_172_1857" cx="0" cy="0" r="1" gradientUnits="userSpaceOnUse" gradientTransform="translate(8.11384 10.375) rotate(-43.4518) scale(3.06709 0.441405)">
<stop stop-color="#1FAE5A"/>
<stop offset="1" stop-color="#1FAE5A" stop-opacity="0"/>
</radialGradient>
<radialGradient id="paint17_radial_172_1857" cx="0" cy="0" r="1" gradientUnits="userSpaceOnUse" gradientTransform="translate(10.1957 8.49187) rotate(135.971) scale(4.62005 0.0546716)">
<stop offset="0.366" stop-color="#6AD392"/>
<stop offset="1" stop-color="#6AD392" stop-opacity="0"/>
</radialGradient>
<radialGradient id="paint18_radial_172_1857" cx="0" cy="0" r="1" gradientUnits="userSpaceOnUse" gradientTransform="translate(4.77946 13.27) rotate(-67.7703) scale(0.606612 0.762134)">
<stop offset="0.21" stop-color="#718C9F"/>
<stop offset="1" stop-color="#718C9F" stop-opacity="0"/>
</radialGradient>
<radialGradient id="paint19_radial_172_1857" cx="0" cy="0" r="1" gradientUnits="userSpaceOnUse" gradientTransform="translate(6.74196 15.4531) rotate(-70.0161) scale(1.10148 4.12327)">
<stop stop-color="#718C9F"/>
<stop offset="1" stop-color="#718C9F" stop-opacity="0"/>
</radialGradient>
<linearGradient id="paint20_linear_172_1857" x1="9.63759" y1="9.20313" x2="5.98509" y2="11.2538" gradientUnits="userSpaceOnUse">
<stop stop-color="#75E2A0"/>
<stop offset="1" stop-color="#72D79A" stop-opacity="0"/>
</linearGradient>
<radialGradient id="paint21_radial_172_1857" cx="0" cy="0" r="1" gradientUnits="userSpaceOnUse" gradientTransform="translate(9.55947 8.89063) rotate(93.1639) scale(3.89265 1.0219)">
<stop stop-color="#6EE79D"/>
<stop offset="1" stop-color="#72D79A" stop-opacity="0"/>
</radialGradient>
<radialGradient id="paint22_radial_172_1857" cx="0" cy="0" r="1" gradientUnits="userSpaceOnUse" gradientTransform="translate(17.0206 10.707) rotate(-178.768) scale(3.40521 1.76354)">
<stop stop-color="#81FFB3"/>
<stop offset="1" stop-color="#81FFB3" stop-opacity="0"/>
</radialGradient>
<radialGradient id="paint23_radial_172_1857" cx="0" cy="0" r="1" gradientUnits="userSpaceOnUse" gradientTransform="translate(12.6901 11.2187) rotate(136.169) scale(0.472198 2.98809)">
<stop stop-color="#72DDA1"/>
<stop offset="1" stop-color="#72DDA1" stop-opacity="0"/>
</radialGradient>
<radialGradient id="paint24_radial_172_1857" cx="0" cy="0" r="1" gradientUnits="userSpaceOnUse" gradientTransform="translate(14.4538 4.43762) rotate(135) scale(6.62912 6.28187)">
<stop offset="0.279" stop-color="#188A50" stop-opacity="0"/>
<stop offset="1" stop-color="#188A50"/>
</radialGradient>
<radialGradient id="paint25_radial_172_1857" cx="0" cy="0" r="1" gradientUnits="userSpaceOnUse" gradientTransform="translate(15.547 3.14812) rotate(133.688) scale(3.61934 3.80696)">
<stop offset="0.164" stop-color="#75F9A8"/>
<stop offset="1" stop-color="#75F9A8" stop-opacity="0"/>
</radialGradient>
<radialGradient id="paint26_radial_172_1857" cx="0" cy="0" r="1" gradientUnits="userSpaceOnUse" gradientTransform="translate(9.06238 9.78873) rotate(-45) scale(5.52427 3.78412)">
<stop stop-color="#338B6E"/>
<stop offset="1" stop-color="#338B6E" stop-opacity="0"/>
</radialGradient>
<radialGradient id="paint27_radial_172_1857" cx="0" cy="0" r="1" gradientUnits="userSpaceOnUse" gradientTransform="translate(12.762 6.0579) rotate(136.672) scale(3.78574 0.557775)">
<stop stop-color="#309B69"/>
<stop offset="1" stop-color="#34BB72" stop-opacity="0"/>
</radialGradient>
<radialGradient id="paint28_radial_172_1857" cx="0" cy="0" r="1" gradientUnits="userSpaceOnUse" gradientTransform="translate(15.0576 3.64625) rotate(136.695) scale(4.67005 0.105675)">
<stop stop-color="#79F0AF"/>
<stop offset="1" stop-color="#79F0AF" stop-opacity="0"/>
</radialGradient>
<radialGradient id="paint29_radial_172_1857" cx="0" cy="0" r="1" gradientUnits="userSpaceOnUse" gradientTransform="translate(16.3365 5.47915) rotate(-174.56) scale(1.92273 0.673095)">
<stop stop-color="#80FFB4"/>
<stop offset="1" stop-color="#80FFB4" stop-opacity="0"/>
</radialGradient>
<linearGradient id="paint30_linear_172_1857" x1="6.75696" y1="3.30437" x2="10.1957" y2="8.92937" gradientUnits="userSpaceOnUse">
<stop stop-color="#3AC97D"/>
<stop offset="1" stop-color="#3FAD80"/>
</linearGradient>
<radialGradient id="paint31_radial_172_1857" cx="0" cy="0" r="1" gradientUnits="userSpaceOnUse" gradientTransform="translate(5.10648 3.01165) rotate(45) scale(3.39742 4.59324)">
<stop stop-color="#3BC577"/>
<stop offset="1" stop-color="#3BC577" stop-opacity="0"/>
</radialGradient>
<radialGradient id="paint32_radial_172_1857" cx="0" cy="0" r="1" gradientUnits="userSpaceOnUse" gradientTransform="translate(9.61759 2.73832) rotate(145.105) scale(2.83371 2.75887)">
<stop stop-color="#5AF095"/>
<stop offset="1" stop-color="#5AF095" stop-opacity="0"/>
</radialGradient>
<radialGradient id="paint33_radial_172_1857" cx="0" cy="0" r="1" gradientUnits="userSpaceOnUse" gradientTransform="translate(10.1964 8.53504) rotate(-134.582) scale(6.19312 0.321944)">
<stop offset="0.433" stop-color="#3AA578"/>
<stop offset="1" stop-color="#3AA578" stop-opacity="0"/>
</radialGradient>
<radialGradient id="paint34_radial_172_1857" cx="0" cy="0" r="1" gradientUnits="userSpaceOnUse" gradientTransform="translate(10.282 8.64625) rotate(-134.009) scale(5.98782 0.0321252)">
<stop offset="0.545" stop-color="#4EB87F"/>
<stop offset="1" stop-color="#4EB87F" stop-opacity="0"/>
</radialGradient>
<radialGradient id="paint35_radial_172_1857" cx="0" cy="0" r="1" gradientUnits="userSpaceOnUse" gradientTransform="translate(5.88759 8.53562) rotate(4.37715) scale(3.8785 1.9879)">
<stop stop-color="#379876"/>
<stop offset="1" stop-color="#379876" stop-opacity="0"/>
</radialGradient>
<radialGradient id="paint36_radial_172_1857" cx="0" cy="0" r="1" gradientUnits="userSpaceOnUse" gradientTransform="translate(9.61821 5.1975) rotate(152.304) scale(1.38969 6.24025)">
<stop stop-color="#77E8A3"/>
<stop offset="1" stop-color="#77E8A3" stop-opacity="0"/>
</radialGradient>
<radialGradient id="paint37_radial_172_1857" cx="0" cy="0" r="1" gradientUnits="userSpaceOnUse" gradientTransform="translate(13.4857 5.58938) rotate(-174.24) scale(6.81175 3.32175)">
<stop stop-color="#77E8A3"/>
<stop offset="0.999" stop-color="#77E8A3" stop-opacity="0"/>
</radialGradient>
<linearGradient id="paint38_linear_172_1857" x1="7.86509" y1="6.73188" x2="8.26571" y2="6.30751" gradientUnits="userSpaceOnUse">
<stop stop-color="#75D79F"/>
<stop offset="1" stop-color="#75D79F" stop-opacity="0"/>
</linearGradient>
<radialGradient id="paint39_radial_172_1857" cx="0" cy="0" r="1" gradientUnits="userSpaceOnUse" gradientTransform="translate(14.2282 4.43757) rotate(-107.078) scale(2.6268 0.919577)">
<stop stop-color="#80FFB4"/>
<stop offset="1" stop-color="#80FFB4" stop-opacity="0"/>
</radialGradient>
</defs>
</svg>
