<svg width="21" height="20" viewBox="0 0 21 20" fill="none" xmlns="http://www.w3.org/2000/svg">
<path d="M4.69469 9.3375L8.83032 2.07625C8.9653 1.83922 9.16076 1.64226 9.39675 1.50548C9.63274 1.36871 9.90081 1.297 10.1736 1.2977C10.4463 1.2984 10.714 1.37148 10.9493 1.50946C11.1846 1.64745 11.3791 1.84541 11.5128 2.08312L15.7241 9.56437H15.7172C16.1882 10.464 16.4333 11.4646 16.4316 12.48C16.4316 15.9531 13.6159 18.7687 10.1428 18.7687C6.66969 18.7687 3.85406 15.9531 3.85406 12.48C3.85406 11.3912 4.13031 10.3675 4.61656 9.475H4.61531L4.65469 9.40625L4.69469 9.3375Z" fill="url(#paint0_linear_172_2953)"/>
<path d="M4.69469 9.3375L8.83032 2.07625C8.9653 1.83922 9.16076 1.64226 9.39675 1.50548C9.63274 1.36871 9.90081 1.297 10.1736 1.2977C10.4463 1.2984 10.714 1.37148 10.9493 1.50946C11.1846 1.64745 11.3791 1.84541 11.5128 2.08312L15.7241 9.56437H15.7172C16.1882 10.464 16.4333 11.4646 16.4316 12.48C16.4316 15.9531 13.6159 18.7687 10.1428 18.7687C6.66969 18.7687 3.85406 15.9531 3.85406 12.48C3.85406 11.3912 4.13031 10.3675 4.61656 9.475H4.61531L4.65469 9.40625L4.69469 9.3375Z" fill="url(#paint1_radial_172_2953)"/>
<path d="M4.69469 9.3375L8.83032 2.07625C8.9653 1.83922 9.16076 1.64226 9.39675 1.50548C9.63274 1.36871 9.90081 1.297 10.1736 1.2977C10.4463 1.2984 10.714 1.37148 10.9493 1.50946C11.1846 1.64745 11.3791 1.84541 11.5128 2.08312L15.7241 9.56437H15.7172C16.1882 10.464 16.4333 11.4646 16.4316 12.48C16.4316 15.9531 13.6159 18.7687 10.1428 18.7687C6.66969 18.7687 3.85406 15.9531 3.85406 12.48C3.85406 11.3912 4.13031 10.3675 4.61656 9.475H4.61531L4.65469 9.40625L4.69469 9.3375Z" fill="url(#paint2_radial_172_2953)"/>
<path d="M4.69469 9.3375L8.83032 2.07625C8.9653 1.83922 9.16076 1.64226 9.39675 1.50548C9.63274 1.36871 9.90081 1.297 10.1736 1.2977C10.4463 1.2984 10.714 1.37148 10.9493 1.50946C11.1846 1.64745 11.3791 1.84541 11.5128 2.08312L15.7241 9.56437H15.7172C16.1882 10.464 16.4333 11.4646 16.4316 12.48C16.4316 15.9531 13.6159 18.7687 10.1428 18.7687C6.66969 18.7687 3.85406 15.9531 3.85406 12.48C3.85406 11.3912 4.13031 10.3675 4.61656 9.475H4.61531L4.65469 9.40625L4.69469 9.3375Z" fill="url(#paint3_radial_172_2953)"/>
<path d="M4.69469 9.3375L8.83032 2.07625C8.9653 1.83922 9.16076 1.64226 9.39675 1.50548C9.63274 1.36871 9.90081 1.297 10.1736 1.2977C10.4463 1.2984 10.714 1.37148 10.9493 1.50946C11.1846 1.64745 11.3791 1.84541 11.5128 2.08312L15.7241 9.56437H15.7172C16.1882 10.464 16.4333 11.4646 16.4316 12.48C16.4316 15.9531 13.6159 18.7687 10.1428 18.7687C6.66969 18.7687 3.85406 15.9531 3.85406 12.48C3.85406 11.3912 4.13031 10.3675 4.61656 9.475H4.61531L4.65469 9.40625L4.69469 9.3375Z" fill="url(#paint4_linear_172_2953)"/>
<defs>
<linearGradient id="paint0_linear_172_2953" x1="10.1428" y1="5.46875" x2="10.1428" y2="18.2812" gradientUnits="userSpaceOnUse">
<stop stop-color="#FD4452"/>
<stop offset="1" stop-color="#FF1F5D"/>
</linearGradient>
<radialGradient id="paint1_radial_172_2953" cx="0" cy="0" r="1" gradientUnits="userSpaceOnUse" gradientTransform="translate(10.1428 7.97937) rotate(90) scale(10.7904 9.49725)">
<stop offset="0.901" stop-color="#FE7C86" stop-opacity="0"/>
<stop offset="1" stop-color="#FE7C86"/>
</radialGradient>
<radialGradient id="paint2_radial_172_2953" cx="0" cy="0" r="1" gradientUnits="userSpaceOnUse" gradientTransform="translate(14.7541 11.3744) rotate(143.778) scale(6.415 4.02611)">
<stop stop-color="#FEB4BA"/>
<stop offset="1" stop-color="#FEB4BA" stop-opacity="0"/>
</radialGradient>
<radialGradient id="paint3_radial_172_2953" cx="0" cy="0" r="1" gradientUnits="userSpaceOnUse" gradientTransform="translate(12.8091 2.475) rotate(61.928) scale(9.52631 4.69903)">
<stop stop-color="#FEA2A9"/>
<stop offset="1" stop-color="#FEA2A9" stop-opacity="0"/>
</radialGradient>
<linearGradient id="paint4_linear_172_2953" x1="5.96344" y1="6.71875" x2="10.1428" y2="8.125" gradientUnits="userSpaceOnUse">
<stop offset="0.032" stop-color="#E43D4A"/>
<stop offset="1" stop-color="#FD4452" stop-opacity="0"/>
</linearGradient>
</defs>
</svg>
