<svg width="28" height="28" viewBox="0 0 28 28" fill="none" xmlns="http://www.w3.org/2000/svg">
<path fill-rule="evenodd" clip-rule="evenodd" d="M11.4798 11.5565C12.5229 10.722 13.3985 9.62203 14 8.4C14.6015 9.62203 15.4771 10.722 16.5202 11.5565C17.8794 12.6439 18.48 13.8635 18.48 15.0802C18.48 16.2683 18.008 17.4078 17.1678 18.248C16.3277 19.0882 15.1882 19.5602 14 19.5602C12.8118 19.5602 11.6723 19.0882 10.8322 18.248C9.992 17.4078 9.52 16.2683 9.52 15.0802C9.52 13.8635 10.1206 12.6439 11.4798 11.5565Z" fill="#FF699C"/>
<path fill-rule="evenodd" clip-rule="evenodd" d="M11.6821 22.6536C13.6429 23.1787 15.7238 23.0226 17.5843 22.2109C19.4448 21.3993 20.9746 19.9801 21.9235 18.1857C21.992 18.0556 22.0855 17.9402 22.1986 17.8462C22.3118 17.7522 22.4423 17.6814 22.5827 17.6378C22.7232 17.5943 22.8709 17.5788 23.0174 17.5923C23.1638 17.6058 23.3062 17.648 23.4363 17.7166C23.5665 17.7851 23.6818 17.8786 23.7758 17.9917C23.8698 18.1048 23.9407 18.2353 23.9842 18.3758C24.0278 18.5163 24.0433 18.6639 24.0298 18.8104C24.0163 18.9569 23.974 19.0992 23.9055 19.2294C21.5204 23.7532 16.2508 26.1954 11.1021 24.817C5.12812 23.2157 1.58405 17.076 3.1842 11.1021C4.78435 5.12812 10.9252 1.58406 16.898 3.1842C19.2648 3.81774 21.3586 5.21009 22.8581 7.14777C24.3577 9.08545 25.1804 11.4615 25.2 13.9116C25.2078 14.9227 24.0858 15.4815 23.2818 14.9418L20.2887 12.9239C19.1599 12.1625 19.9169 10.4033 21.2449 10.7001L22.4296 10.9644C21.9074 9.51504 21.0203 8.22489 19.8539 7.21852C18.6875 6.21216 17.2813 5.5236 15.7711 5.21935C14.2609 4.91509 12.6978 5.00544 11.2327 5.48165C9.76767 5.95786 8.45016 6.80385 7.40748 7.93788C6.36481 9.07192 5.6322 10.4557 5.28043 11.9555C4.92866 13.4553 4.96962 15.0205 5.39935 16.4999C5.82908 17.9793 6.63306 19.3228 7.73363 20.4008C8.83419 21.4788 10.1941 22.2547 11.6821 22.6536Z" fill="#FF699C"/>
</svg>
